<?xml version="1.0" encoding="UTF-8"?>
<svg version="1.1" xmlns="http://www.w3.org/2000/svg" width="300" height="300">
<path d="M0 0 C4.96140661 0.8269011 8.09538448 1.74160971 12.5625 3.75 C13.80641456 4.30016451 15.05122739 4.84830197 16.296875 5.39453125 C16.91884766 5.6673291 17.54082031 5.94012695 18.18164062 6.22119141 C20.86351242 7.36984487 23.58384761 8.40568546 26.3125 9.4375 C31.35373048 11.34631542 36.33706778 13.36548212 41.3125 15.4375 C50.42982601 19.22680119 59.63052647 22.87684216 69 26 C70.26448866 28.52897733 70.1757014 30.36541126 70.24047852 33.1965332 C70.26622452 34.28138504 70.29197052 35.36623688 70.3184967 36.48396301 C70.4025609 41.447445 70.46850024 46.41077602 70.51489258 51.37475586 C70.54656889 53.99479303 70.5943595 56.61468609 70.65844727 59.23413086 C70.74952634 63.00689739 70.78847598 66.77708255 70.81640625 70.55078125 C70.85455948 71.72175858 70.89271271 72.8927359 70.93202209 74.09919739 C70.91295775 82.05144619 70.91295775 82.05144619 68.25143433 84.81674194 C66.21222073 86.09758973 64.21318557 87.0619043 62 88 C60.65064926 88.97827929 59.30674304 89.96549509 58 91 C58.78246094 91.42152344 59.56492188 91.84304687 60.37109375 92.27734375 C61.38300781 92.82519531 62.39492187 93.37304688 63.4375 93.9375 C64.95150391 94.75541016 64.95150391 94.75541016 66.49609375 95.58984375 C69 97 69 97 70 98 C70.11369238 100.69479602 70.16419384 103.36291431 70.16796875 106.05859375 C70.17296135 107.28607079 70.17296135 107.28607079 70.17805481 108.53834534 C70.18313211 110.2793827 70.18546289 112.02042985 70.18530273 113.76147461 C70.18746526 116.39518985 70.20554477 119.0284697 70.22460938 121.66210938 C70.27154863 135.46677022 70.10630958 147.89236293 60.0546875 158.36328125 C55.12456127 163.20527225 49.87169381 166.14562648 43.6875 169.125 C41.63694191 170.15149335 39.58744902 171.18011754 37.5390625 172.2109375 C36.57258789 172.69272461 35.60611328 173.17451172 34.61035156 173.67089844 C31.51019604 175.24939139 28.54084579 176.95314675 25.5625 178.75 C20.96992189 181.49607763 16.27769917 183.97089731 11.5 186.375 C10.81623291 186.72143555 10.13246582 187.06787109 9.42797852 187.42480469 C6.26032384 188.9989613 3.45218667 190.13695333 0 191 C0 163.94 0 136.88 0 109 C7 111 7 111 22 119 C22 130.55 22 142.1 22 154 C25.403125 152.288125 28.80625 150.57625 32.3125 148.8125 C33.38153564 148.28374268 34.45057129 147.75498535 35.55200195 147.21020508 C36.81983521 146.55894653 36.81983521 146.55894653 38.11328125 145.89453125 C39.40939331 145.24254761 39.40939331 145.24254761 40.73168945 144.57739258 C43.51169488 142.64416526 44.62140789 141.09017748 46 138 C46.4098535 134.90999442 46.4098535 134.90999442 46.29296875 131.60546875 C46.28547607 130.52160889 46.2779834 129.43774902 46.27026367 128.32104492 C46.22929565 126.27494019 46.22929565 126.27494019 46.1875 124.1875 C46.125625 119.835625 46.06375 115.48375 46 111 C34.12 105.06 22.24 99.12 10 93 C10 91.68 10 90.36 10 89 C19.24076211 84.05939452 28.50101179 79.18220027 37.90820312 74.56445312 C40.73658051 73.16919796 43.37064208 71.75290528 46 70 C46.51146198 67.09386566 46.51146198 67.09386566 46.51171875 63.6796875 C46.54716797 62.42285156 46.58261719 61.16601562 46.61914062 59.87109375 C46.64169922 58.55238281 46.66425781 57.23367187 46.6875 55.875 C46.72066529 54.53512241 46.75515422 53.19527689 46.79101562 51.85546875 C46.87373327 48.5703967 46.94280693 45.28559968 47 42 C46.05858154 41.73062622 46.05858154 41.73062622 45.09814453 41.45581055 C39.56063351 39.83839804 34.20490663 38.0151655 28.875 35.8125 C28.2046875 35.53986328 27.534375 35.26722656 26.84375 34.98632812 C25.22750495 34.3282855 23.61349401 33.66475953 22 33 C22.0721875 34.01578125 22.144375 35.0315625 22.21875 36.078125 C22.67046907 42.64967639 23.08838768 49.22679779 23.25 55.8125 C23.27578125 56.74707031 23.3015625 57.68164062 23.328125 58.64453125 C22.92320418 61.55128426 22.18209203 62.10844147 20 64 C17.25721301 65.72652516 14.37069331 67.18505867 11.5 68.6875 C10.34177734 69.31108398 10.34177734 69.31108398 9.16015625 69.94726562 C8.41636719 70.33978516 7.67257813 70.73230469 6.90625 71.13671875 C6.22884766 71.49467529 5.55144531 71.85263184 4.85351562 72.22143555 C3 73 3 73 0 73 C0 48.91 0 24.82 0 0 Z " fill="#714A2F" transform="translate(160,22)"/>
<path d="M0 0 C0 24.09 0 48.18 0 73 C-6.75197521 71.8746708 -6.75197521 71.8746708 -10.05078125 69.96875 C-10.74880859 69.57042969 -11.44683594 69.17210938 -12.16601562 68.76171875 C-12.87435547 68.34535156 -13.58269531 67.92898437 -14.3125 67.5 C-15.40401367 66.87544922 -15.40401367 66.87544922 -16.51757812 66.23828125 C-21.80980426 63.19019574 -21.80980426 63.19019574 -23 62 C-23.08775605 59.85441173 -23.10695219 57.70595579 -23.09765625 55.55859375 C-23.09443359 54.25341797 -23.09121094 52.94824219 -23.08789062 51.60351562 C-23.07953401 50.2148431 -23.07106905 48.82617123 -23.0625 47.4375 C-23.05748666 46.04492344 -23.05292347 44.65234519 -23.04882812 43.25976562 C-23.03699434 39.8398013 -23.0205088 36.41992156 -23 33 C-23.97791504 33.43143311 -24.95583008 33.86286621 -25.96337891 34.30737305 C-31.36229729 36.6892488 -36.5917515 38.93147749 -42.25244141 40.6003418 C-43.14412018 40.86429245 -44.03579895 41.1282431 -44.95449829 41.40019226 C-45.62951385 41.59812881 -46.30452942 41.79606537 -47 42 C-47.04640817 53.59635977 -47.08191231 65.19269732 -47.10362434 76.78913116 C-47.11404676 82.17423287 -47.12817782 87.55927088 -47.15087891 92.94433594 C-47.17266223 98.14443078 -47.18458023 103.34446448 -47.18975449 108.54460144 C-47.19344039 110.52525291 -47.20063799 112.50590116 -47.21146011 114.48652649 C-47.22604795 117.26778306 -47.22797489 120.04878925 -47.22705078 122.83007812 C-47.23424133 123.64288239 -47.24143188 124.45568665 -47.24884033 125.29312134 C-47.21817912 133.86107666 -46.37937195 138.62062805 -40 145 C-34.72 147.64 -29.44 150.28 -24 153 C-23.67 133.86 -23.34 114.72 -23 95 C-20 94 -20 94 -17.93115234 94.78857422 C-17.15723145 95.2063916 -16.38331055 95.62420898 -15.5859375 96.0546875 C-14.74289063 96.50457031 -13.89984375 96.95445313 -13.03125 97.41796875 C-11.71640625 98.13919922 -11.71640625 98.13919922 -10.375 98.875 C-9.49070313 99.34808594 -8.60640625 99.82117188 -7.6953125 100.30859375 C-1.18851225 103.81148775 -1.18851225 103.81148775 0 105 C0.09512944 107.67787973 0.12555279 110.32988869 0.11352539 113.00805664 C0.11367142 113.84700974 0.11381744 114.68596283 0.1139679 115.55033875 C0.1132685 118.33697044 0.10547485 121.12353616 0.09765625 123.91015625 C0.09579217 125.83686791 0.09436822 127.76358005 0.09336853 129.69029236 C0.08954259 134.77187397 0.07971166 139.8534272 0.06866455 144.93499756 C0.05845206 150.11616634 0.05387126 155.29733969 0.04882812 160.47851562 C0.03808946 170.65235625 0.02101213 180.82617577 0 191 C-3.65599935 190.16207394 -6.62166386 188.77539882 -9.9609375 187.04296875 C-10.53980713 186.74384583 -11.11867676 186.4447229 -11.71508789 186.13653564 C-13.60425238 185.15830368 -15.48985177 184.1734471 -17.375 183.1875 C-18.01850403 182.85219269 -18.66200806 182.51688538 -19.32501221 182.17141724 C-23.26759469 180.11703796 -27.20487346 178.05278663 -31.13818359 175.98071289 C-32.8922063 175.05678039 -34.64724229 174.13477228 -36.40234375 173.21289062 C-39.39962203 171.6327433 -42.3889171 170.03868411 -45.375 168.4375 C-46.2520459 167.97432373 -47.1290918 167.51114746 -48.03271484 167.03393555 C-57.89627821 161.68641849 -65.59883787 155.05377692 -69 144 C-70.08687122 138.01660109 -70.13527622 132.17815879 -70.11352539 126.10766602 C-70.11367142 125.03375107 -70.11381744 123.95983612 -70.1139679 122.8533783 C-70.11327382 119.32020007 -70.1055051 115.78707522 -70.09765625 112.25390625 C-70.09579028 109.79768401 -70.09436722 107.34146139 -70.09336853 104.88523865 C-70.08955749 98.43265753 -70.07973927 91.98009905 -70.06866455 85.52752686 C-70.05842004 78.93827623 -70.0538644 72.34902193 -70.04882812 65.75976562 C-70.03811573 52.83983411 -70.02124957 39.91991826 -70 27 C-69.10394043 26.6376123 -68.20788086 26.27522461 -67.28466797 25.90185547 C-63.88824817 24.52781298 -60.49260545 23.15185855 -57.09716797 21.77539062 C-55.64099169 21.18536886 -54.1846185 20.59583277 -52.72802734 20.00683594 C-44.08686069 16.51220263 -35.47977558 12.95643328 -26.92738342 9.24932861 C-23.13798645 7.63211577 -19.30822637 6.15899243 -15.4375 4.75 C-10.29941946 2.86806492 -10.29941946 2.86806492 -5.22265625 0.828125 C-3 0 -3 0 0 0 Z " fill="#714B30" transform="translate(153,22)"/>
<path d="M0 0 C7.875 2.25 7.875 2.25 10.96484375 3.9453125 C11.94614258 4.47705078 11.94614258 4.47705078 12.94726562 5.01953125 C13.60404297 5.38433594 14.26082031 5.74914062 14.9375 6.125 C15.62134766 6.49753906 16.30519531 6.87007812 17.00976562 7.25390625 C18.67657239 8.16307357 20.33878042 9.08066355 22 10 C22.16723554 15.10845794 22.32783286 20.21706404 22.48217773 25.32592773 C22.53567262 27.06524323 22.59100755 28.80450312 22.64819336 30.54370117 C22.72989627 33.03812666 22.80506164 35.53267483 22.87890625 38.02734375 C22.91945885 39.2007859 22.91945885 39.2007859 22.96083069 40.39793396 C23.01288386 42.26460933 23.01187025 44.13263674 23 46 C22.67 46.33 22.34 46.66 22 47 C21.91299658 48.63472882 21.89298937 50.27314055 21.90234375 51.91015625 C21.90717773 53.39418945 21.90717773 53.39418945 21.91210938 54.90820312 C21.92048828 55.94912109 21.92886719 56.99003906 21.9375 58.0625 C21.94201172 59.10728516 21.94652344 60.15207031 21.95117188 61.22851562 C21.96300087 63.8190666 21.97948311 66.40950559 22 69 C23.485 69.495 23.485 69.495 25 70 C21.4014499 72.01023376 17.79528775 74.0063998 14.1875 76 C13.16333984 76.57234375 12.13917969 77.1446875 11.08398438 77.734375 C10.10107422 78.27578125 9.11816406 78.8171875 8.10546875 79.375 C7.19949951 79.87773437 6.29353027 80.38046875 5.36010742 80.8984375 C3 82 3 82 0 82 C0 54.94 0 27.88 0 0 Z " fill="#F58B30" transform="translate(160,131)"/>
<path d="M0 0 C5.08177765 0.84696294 8.50138581 1.89532052 13.125 3.9375 C14.32382813 4.46214844 15.52265625 4.98679687 16.7578125 5.52734375 C19.20256567 6.63779188 21.61356554 7.77116434 24 9 C23.01 9 22.02 9 21 9 C21.10954408 12.62564187 21.2402496 16.25021431 21.375 19.875 C21.4059375 20.90753906 21.436875 21.94007812 21.46875 23.00390625 C21.50742188 23.99003906 21.54609375 24.97617187 21.5859375 25.9921875 C21.63306885 27.35899658 21.63306885 27.35899658 21.68115234 28.75341797 C21.79882511 31.19931186 21.79882511 31.19931186 24 33 C23.34 33 22.68 33 22 33 C22.0721875 34.01578125 22.144375 35.0315625 22.21875 36.078125 C22.67046907 42.64967639 23.08838768 49.22679779 23.25 55.8125 C23.27578125 56.74707031 23.3015625 57.68164062 23.328125 58.64453125 C22.92320418 61.55128426 22.18209203 62.10844147 20 64 C17.25721301 65.72652516 14.37069331 67.18505867 11.5 68.6875 C10.34177734 69.31108398 10.34177734 69.31108398 9.16015625 69.94726562 C8.41636719 70.33978516 7.67257813 70.73230469 6.90625 71.13671875 C6.22884766 71.49467529 5.55144531 71.85263184 4.85351562 72.22143555 C3 73 3 73 0 73 C0 48.91 0 24.82 0 0 Z " fill="#F58E35" transform="translate(160,22)"/>
<path d="M0 0 C3.155625 -0.061875 6.31125 -0.12375 9.5625 -0.1875 C10.5429126 -0.21481201 11.5233252 -0.24212402 12.53344727 -0.27026367 C18.14132738 -0.32314138 22.06856734 0.2624982 27 3 C28.96849063 6.03475639 29.05599534 7.5333722 28.625 11.125 C28.315625 12.548125 28.315625 12.548125 28 14 C27.7226499 17.18490007 27.7226499 17.18490007 30 20 C30.4375 23.375 30.4375 23.375 30 27 C27.28691067 30.46672525 25.30400422 32.24910743 21 33 C19.34010718 33.07911543 17.6773713 33.10778885 16.015625 33.09765625 C15.17290039 33.09515869 14.33017578 33.09266113 13.46191406 33.09008789 C12.40198242 33.08098389 11.34205078 33.07187988 10.25 33.0625 C6.8675 33.041875 3.485 33.02125 0 33 C0 22.11 0 11.22 0 0 Z M9 7 C9 8.98 9 10.96 9 13 C10.27875 13.020625 11.5575 13.04125 12.875 13.0625 C13.59429687 13.07410156 14.31359375 13.08570313 15.0546875 13.09765625 C17.08185404 13.12649242 17.08185404 13.12649242 19 12 C19 10.68 19 9.36 19 8 C16.71294169 6.85647084 15.40735238 6.89665561 12.875 6.9375 C10.956875 6.9684375 10.956875 6.9684375 9 7 Z M9 20 C9 21.98 9 23.96 9 26 C15.31268603 26.37552165 15.31268603 26.37552165 21 24 C20.67 22.68 20.34 21.36 20 20 C16.37 20 12.74 20 9 20 Z " fill="#825D43" transform="translate(86,240)"/>
<path d="M0 0 C8 0 8 0 9.90209961 1.16162109 C10.31468018 1.69352051 10.72726074 2.22541992 11.15234375 2.7734375 C11.61833984 3.3509375 12.08433594 3.9284375 12.56445312 4.5234375 C13.24411133 5.43996094 13.24411133 5.43996094 13.9375 6.375 C14.41767578 6.97828125 14.89785156 7.5815625 15.39257812 8.203125 C17.11551299 10.39020734 18.75168448 12.50336896 20 15 C20.09087891 13.50146484 20.09087891 13.50146484 20.18359375 11.97265625 C20.26738281 10.68230469 20.35117188 9.39195312 20.4375 8.0625 C20.51871094 6.77472656 20.59992188 5.48695313 20.68359375 4.16015625 C21 1 21 1 22 0 C24.64 0 27.28 0 30 0 C30 10.89 30 21.78 30 33 C23 33 23 33 20.234375 30.734375 C19.41453125 29.74953125 18.5946875 28.7646875 17.75 27.75 C16.91984375 26.77546875 16.0896875 25.8009375 15.234375 24.796875 C13.44951496 22.56267957 11.71576445 20.28768594 10 18 C9.67 22.95 9.34 27.9 9 33 C6.03 33 3.06 33 0 33 C0 22.11 0 11.22 0 0 Z " fill="#825F45" transform="translate(50,240)"/>
<path d="M0 0 C1.640625 0.984375 1.640625 0.984375 3.828125 3.234375 C3.828125 7.234375 3.828125 7.234375 2.578125 9.046875 C0.828125 10.234375 0.828125 10.234375 -1.296875 9.984375 C-3.171875 9.234375 -3.171875 9.234375 -4.171875 8.234375 C-9.36772761 7.73729853 -9.36772761 7.73729853 -14.109375 9.359375 C-15.63070969 12.04408327 -15.99053515 14.15159761 -16.171875 17.234375 C-15.3270894 20.52298595 -15.3270894 20.52298595 -14.171875 23.234375 C-12.54723658 23.28832978 -10.92208959 23.32714695 -9.296875 23.359375 C-8.39195313 23.38257813 -7.48703125 23.40578125 -6.5546875 23.4296875 C-3.98380506 23.47762336 -3.98380506 23.47762336 -2.171875 21.234375 C1.12092209 21.55303278 2.69347588 22.77952851 4.828125 25.234375 C3.84339148 28.09010221 2.8697407 29.20449706 0.390625 30.984375 C-5.62006354 33.09338852 -11.49960606 33.12513131 -17.546875 31.109375 C-21.61853995 28.20104289 -24.55865579 25.07403262 -26.171875 20.234375 C-26.94625535 13.79813177 -26.12666629 8.47980178 -22.171875 3.234375 C-16.12235148 -1.91415565 -7.49704032 -2.64284155 0 0 Z " fill="#815C43" transform="translate(42.171875,240.765625)"/>
<path d="M0 0 C1.20970459 0.00523682 2.41940918 0.01047363 3.66577148 0.01586914 C4.97094727 0.0190918 6.27612305 0.02231445 7.62084961 0.02563477 C9.00952213 0.03399138 10.39819401 0.04245634 11.78686523 0.05102539 C13.17944179 0.05603873 14.57202005 0.06060193 15.96459961 0.06469727 C19.38456394 0.07653105 22.80444367 0.09301659 26.22436523 0.11352539 C26.22436523 2.75352539 26.22436523 5.39352539 26.22436523 8.11352539 C22.92436523 8.11352539 19.62436523 8.11352539 16.22436523 8.11352539 C16.23222046 9.19621704 16.23222046 9.19621704 16.24023438 10.30078125 C16.26093881 13.55085388 16.27400442 16.80091267 16.28686523 20.05102539 C16.29524414 21.18733398 16.30362305 22.32364258 16.31225586 23.49438477 C16.31708984 25.11376953 16.31708984 25.11376953 16.32202148 26.76586914 C16.32987671 28.26621704 16.32987671 28.26621704 16.33789062 29.796875 C16.22436523 32.11352539 16.22436523 32.11352539 15.22436523 33.11352539 C12.55377672 33.254677 9.90004286 33.15599646 7.22436523 33.11352539 C5.97188022 30.60855535 6.11062117 28.90499265 6.12670898 26.10571289 C6.12993164 25.11958008 6.1331543 24.13344727 6.13647461 23.11743164 C6.14485352 22.08489258 6.15323242 21.05235352 6.16186523 19.98852539 C6.16637695 18.94825195 6.17088867 17.90797852 6.17553711 16.83618164 C6.18734571 14.26190577 6.20381448 11.68774393 6.22436523 9.11352539 C5.5862793 9.05293945 4.94819336 8.99235352 4.29077148 8.92993164 C3.46448242 8.84614258 2.63819336 8.76235352 1.78686523 8.67602539 C0.9631543 8.59481445 0.13944336 8.51360352 -0.70922852 8.42993164 C-2.77563477 8.11352539 -2.77563477 8.11352539 -3.77563477 7.11352539 C-3.90063477 4.11352539 -3.90063477 4.11352539 -3.77563477 1.11352539 C-2.77563477 0.11352539 -2.77563477 0.11352539 0 0 Z " fill="#71482B" transform="translate(140.775634765625,239.886474609375)"/>
<path d="M0 0 C2.64 0 5.28 0 8 0 C9 1 9 1 9.11352539 3.31665039 C9.10828857 4.31688232 9.10305176 5.31711426 9.09765625 6.34765625 C9.09443359 7.42724609 9.09121094 8.50683594 9.08789062 9.61914062 C9.07951172 10.75544922 9.07113281 11.89175781 9.0625 13.0625 C9.05798828 14.20267578 9.05347656 15.34285156 9.04882812 16.51757812 C9.0369976 19.34507418 9.0190615 22.17254345 9 25 C13.95 25 18.9 25 24 25 C24.33 27.31 24.66 29.62 25 32 C24 33 24 33 21.68334961 33.11352539 C20.68311768 33.10828857 19.68288574 33.10305176 18.65234375 33.09765625 C17.19429321 33.09390991 17.19429321 33.09390991 15.70678711 33.09008789 C14.46292236 33.08098389 13.21905762 33.07187988 11.9375 33.0625 C7.998125 33.041875 4.05875 33.02125 0 33 C0 22.11 0 11.22 0 0 Z " fill="#835F46" transform="translate(120,240)"/>
<path d="M0 0 C1.32 0.33 2.64 0.66 4 1 C4 10.24 4 19.48 4 29 C0 30 0 30 -2 29 C-2.66 29.33 -3.32 29.66 -4 30 C-8.57694247 30.12370115 -11.99613174 29.87838473 -15.5 26.8125 C-17.98668316 22.14996907 -18.41385477 19.43631951 -16.9375 14.3125 C-14.64637856 10.39542141 -13.31259671 9.32695283 -9 8 C-5.125 8.3125 -5.125 8.3125 -2 9 C-1.855625 7.700625 -1.71125 6.40125 -1.5625 5.0625 C-1.125 1.125 -1.125 1.125 0 0 Z M-11.9375 15.1875 C-13.14729936 18.38991006 -13.12388916 19.80123853 -12 23 C-10.05541686 25.3721969 -10.05541686 25.3721969 -6.5 25.3125 C-5.345 25.209375 -4.19 25.10625 -3 25 C-0.68717413 21.53076119 -0.57521414 20.07794425 -1 16 C-2 14 -2 14 -4 13 C-7.85434058 12.3576099 -9.28861939 12.19682835 -11.9375 15.1875 Z " fill="#C5C6C6" transform="translate(260,243)"/>
<path d="M0 0 C1.29550781 -0.02126953 1.29550781 -0.02126953 2.6171875 -0.04296875 C5.2491288 0.19890748 6.86480544 0.85766459 9.125 2.1875 C8.795 3.5075 8.465 4.8275 8.125 6.1875 C7.35414063 6.10371094 6.58328125 6.01992187 5.7890625 5.93359375 C4.78617188 5.83175781 3.78328125 5.72992188 2.75 5.625 C1.75226563 5.52058594 0.75453125 5.41617188 -0.2734375 5.30859375 C-2.859037 4.97605292 -2.859037 4.97605292 -4.875 6.1875 C-4.79259884 8.14971738 -4.79259884 8.14971738 -3.875 10.1875 C-1.43202421 11.40756091 -1.43202421 11.40756091 1.5 12.1875 C5.67261342 13.42056782 7.97269541 14.28829065 10.125 18.1875 C9.99350006 21.40924857 9.71342409 23.41185006 7.75 26 C3.99006242 28.7476467 -0.4105554 28.69195702 -4.875 28.1875 C-8.375 26.6875 -8.375 26.6875 -10.875 25.1875 C-10.875 23.8675 -10.875 22.5475 -10.875 21.1875 C-9.62783203 21.4040625 -9.62783203 21.4040625 -8.35546875 21.625 C-7.26878906 21.810625 -6.18210938 21.99625 -5.0625 22.1875 C-3.98355469 22.373125 -2.90460938 22.55875 -1.79296875 22.75 C1.12770898 23.26163786 1.12770898 23.26163786 4.125 23.1875 C4.04923847 20.73523614 4.04923847 20.73523614 3.125 18.1875 C0.69915114 16.85257867 0.69915114 16.85257867 -2.25 16.125 C-7.43965555 14.63930705 -7.43965555 14.63930705 -9.734375 12.2578125 C-10.875 10.1875 -10.875 10.1875 -10.75 7.125 C-9.86749884 4.16231753 -9.29151386 3.02405053 -6.875 1.1875 C-4.42528376 -0.03735812 -2.73265539 0.02027192 0 0 Z " fill="#C7C7C6" transform="translate(189.875,244.8125)"/>
<path d="M0 0 C2.70567626 1.82339052 4.53728718 3.07457436 6 6 C6.49337839 10.93378393 6.52463704 13.06919235 4.0625 17.4375 C0.60822778 20.32780941 -1.36924321 21.02848135 -5.78125 21.234375 C-9.39730218 20.85239766 -11.37405648 19.43380131 -14 17 C-15.91303463 13.9225095 -16.00253398 12.14190292 -15.9375 8.5 C-14.8177994 4.31978443 -13.33213164 2.6974399 -10 0 C-6.18323682 -1.27225439 -3.91280349 -0.87700768 0 0 Z M-9.9375 5.625 C-11.36489363 8.81564458 -10.93843266 10.67939213 -10 14 C-8.12226736 16.30746414 -8.12226736 16.30746414 -5.0625 16.25 C-1.82717213 16.23517754 -1.82717213 16.23517754 1 14 C1.37331109 10.57798172 1.63763183 8.09814371 -0.125 5.0625 C-3.64975815 3.06513705 -6.80574246 2.99836465 -9.9375 5.625 Z " fill="#C5C6C5" transform="translate(294,252)"/>
<path d="M0 0 C0.99 0 1.98 0 3 0 C3.06058594 0.98742187 3.12117187 1.97484375 3.18359375 2.9921875 C3.26738281 4.27351562 3.35117188 5.55484375 3.4375 6.875 C3.51871094 8.15117187 3.59992188 9.42734375 3.68359375 10.7421875 C3.79206027 13.88300152 3.79206027 13.88300152 5 16 C7.64 16 10.28 16 13 16 C13.33 11.05 13.66 6.1 14 1 C15.32 0.67 16.64 0.34 18 0 C19.17426264 2.34852528 19.11508173 3.73774065 19.09765625 6.3515625 C19.09443359 7.20234375 19.09121094 8.053125 19.08789062 8.9296875 C19.07951172 9.81914062 19.07113281 10.70859375 19.0625 11.625 C19.05798828 12.5221875 19.05347656 13.419375 19.04882812 14.34375 C19.03702591 16.56256648 19.02056155 18.78125018 19 21 C15.25 22.125 15.25 22.125 13 21 C10.77525435 21.33218206 8.58773539 21.77100308 6.38671875 22.234375 C4 22 4 22 1.23046875 20.03125 C-1.57263284 16.22178094 -1.61164402 13.28703701 -1.375 8.75 C-1.36082031 8.0178125 -1.34664062 7.285625 -1.33203125 6.53125 C-1.18348214 1.18348214 -1.18348214 1.18348214 0 0 Z " fill="#C5C6C5" transform="translate(220,251)"/>
<path d="M0 0 C1.32 0.33 2.64 0.66 4 1 C4 1.99 4 2.98 4 4 C5.65 4 7.3 4 9 4 C9.5625 5.9375 9.5625 5.9375 10 8 C9.67 8.33 9.34 8.66 9 9 C7.35 9 5.7 9 4 9 C4 12.96 4 16.92 4 21 C5.98 21 7.96 21 10 21 C10.33 21.99 10.66 22.98 11 24 C8 26 8 26 4.4375 25.875 C1 25 1 25 -0.20703125 23.3359375 C-1.21324186 20.37182941 -1.19291399 17.8740434 -1.125 14.75 C-1.10695312 13.67234375 -1.08890625 12.5946875 -1.0703125 11.484375 C-1.04710937 10.66453125 -1.02390625 9.8446875 -1 9 C-2.32 8.67 -3.64 8.34 -5 8 C-4.34 6.68 -3.68 5.36 -3 4 C-2.34 4 -1.68 4 -1 4 C-0.67 2.68 -0.34 1.36 0 0 Z " fill="#C4C5C4" transform="translate(205,247)"/>
<path d="M0 0 C0.99 0 1.98 0 3 0 C3 24.09 3 48.18 3 73 C1.02 72.67 -0.96 72.34 -3 72 C-3.33 71.34 -3.66 70.68 -4 70 C-2.35 70.33 -0.7 70.66 1 71 C0.67 47.57 0.34 24.14 0 0 Z " fill="#B8A79B" transform="translate(150,22)"/>
<path d="M0 0 C2.475 0.495 2.475 0.495 5 1 C5 7.6 5 14.2 5 21 C3.35 21.33 1.7 21.66 0 22 C0 14.74 0 7.48 0 0 Z " fill="#CECFCE" transform="translate(270,251)"/>
<path d="M0 0 C1.20970459 0.00523682 2.41940918 0.01047363 3.66577148 0.01586914 C4.97094727 0.0190918 6.27612305 0.02231445 7.62084961 0.02563477 C9.00952213 0.03399138 10.39819401 0.04245634 11.78686523 0.05102539 C13.17944179 0.05603873 14.57202005 0.06060193 15.96459961 0.06469727 C19.38456394 0.07653105 22.80444367 0.09301659 26.22436523 0.11352539 C26.22436523 2.75352539 26.22436523 5.39352539 26.22436523 8.11352539 C22.92436523 8.11352539 19.62436523 8.11352539 16.22436523 8.11352539 C16.22436523 16.03352539 16.22436523 23.95352539 16.22436523 32.11352539 C15.89436523 32.11352539 15.56436523 32.11352539 15.22436523 32.11352539 C15.22436523 23.86352539 15.22436523 15.61352539 15.22436523 7.11352539 C18.52436523 7.11352539 21.82436523 7.11352539 25.22436523 7.11352539 C25.22436523 5.13352539 25.22436523 3.15352539 25.22436523 1.11352539 C11.85936523 1.60852539 11.85936523 1.60852539 -1.77563477 2.11352539 C-1.44563477 3.43352539 -1.11563477 4.75352539 -0.77563477 6.11352539 C1.86436523 6.44352539 4.50436523 6.77352539 7.22436523 7.11352539 C6.89436523 7.77352539 6.56436523 8.43352539 6.22436523 9.11352539 C4.74468199 8.97303021 3.26562007 8.82597713 1.78686523 8.67602539 C0.9631543 8.59481445 0.13944336 8.51360352 -0.70922852 8.42993164 C-2.77563477 8.11352539 -2.77563477 8.11352539 -3.77563477 7.11352539 C-3.90063477 4.11352539 -3.90063477 4.11352539 -3.77563477 1.11352539 C-2.77563477 0.11352539 -2.77563477 0.11352539 0 0 Z " fill="#F8F6F4" transform="translate(140.775634765625,239.886474609375)"/>
<path d="M0 0 C2.475 0.495 2.475 0.495 5 1 C4.51202438 1.34408401 4.02404877 1.68816803 3.52128601 2.04267883 C1.27317452 4.93515019 1.60530955 7.80577393 1.65942383 11.31713867 C1.65898575 12.05884811 1.65854767 12.80055756 1.65809631 13.56474304 C1.66018617 16.01608616 1.68352581 18.46674513 1.70703125 20.91796875 C1.71262652 22.61761603 1.71689694 24.31726815 1.71989441 26.016922 C1.73134866 30.49031941 1.76082073 34.96342459 1.79400635 39.43670654 C1.82469479 44.00138394 1.83839712 48.56610855 1.85351562 53.13085938 C1.88568995 62.08736797 1.93689325 71.04365969 2 80 C2.66 80.33 3.32 80.66 4 81 C2.02 81.495 2.02 81.495 0 82 C0 54.94 0 27.88 0 0 Z " fill="#F5AE74" transform="translate(160,131)"/>
<path d="M0 0 C1.98 0 3.96 0 6 0 C6 0.33 6 0.66 6 1 C4.35 1 2.7 1 1 1 C1 4.96 1 8.92 1 13 C2.98 13 4.96 13 7 13 C7.33 13.99 7.66 14.98 8 16 C4.1496895 18.56687367 2.41430237 17.83288724 -2 17 C-2.33 15.68 -2.66 14.36 -3 13 C-2.01 12.67 -1.02 12.34 0 12 C0 8.04 0 4.08 0 0 Z " fill="#D7D7D8" transform="translate(208,255)"/>
<path d="M0 0 C2.475 0.495 2.475 0.495 5 1 C4.5155542 1.36262939 4.0311084 1.72525879 3.53198242 2.09887695 C1.32982479 4.83165807 1.56696283 6.94024291 1.48828125 10.41796875 C1.45283203 11.67158203 1.41738281 12.92519531 1.38085938 14.21679688 C1.35830078 15.52712891 1.33574219 16.83746094 1.3125 18.1875 C1.27932334 19.52282013 1.24483334 20.85810832 1.20898438 22.19335938 C1.12637943 25.46215504 1.05726771 28.73067812 1 32 C0.67 32 0.34 32 0 32 C0 21.44 0 10.88 0 0 Z " fill="#F6A461" transform="translate(160,131)"/>
<path d="M0 0 C2.0625 0.4375 2.0625 0.4375 4 1 C3.67 2.65 3.34 4.3 3 6 C1.35 5.67 -0.3 5.34 -2 5 C-1.125 1.125 -1.125 1.125 0 0 Z " fill="#D0D1D0" transform="translate(271,243)"/>
<path d="M0 0 C1.32 0.33 2.64 0.66 4 1 C3.34 1 2.68 1 2 1 C2.33 2.32 2.66 3.64 3 5 C5.64 5.33 8.28 5.66 11 6 C10.67 6.66 10.34 7.32 10 8 C8.52031676 7.85950482 7.04125484 7.71245174 5.5625 7.5625 C4.73878906 7.48128906 3.91507813 7.40007812 3.06640625 7.31640625 C1 7 1 7 0 6 C-0.04080783 4.00041636 -0.04254356 1.99954746 0 0 Z " fill="#CABAAF" transform="translate(137,241)"/>
<path d="M0 0 C0.99 0.66 1.98 1.32 3 2 C1.63016497 5.16115776 1.0109362 5.9927092 -2 8 C-2.99 7.67 -3.98 7.34 -5 7 C-4.34 7 -3.68 7 -3 7 C-1.79371992 4.66785852 -0.8345262 2.50357861 0 0 Z " fill="#B29C8C" transform="translate(44,264)"/>
</svg>
